<svg xmlns="http://www.w3.org/2000/svg" width="512" height="512" viewBox="0 0 512 512" role="img" aria-label="ForumForge">
  <defs>
    <linearGradient id="ff-bg" x1="78" y1="52" x2="438" y2="464" gradientUnits="userSpaceOnUse">
      <stop offset="0" stop-color="#1e3a5f"/>
      <stop offset=".44" stop-color="#0f172a"/>
      <stop offset="1" stop-color="#113a2e"/>
    </linearGradient>
    <linearGradient id="ff-stroke" x1="116" y1="96" x2="414" y2="426" gradientUnits="userSpaceOnUse">
      <stop offset="0" stop-color="#58a6ff"/>
      <stop offset=".55" stop-color="#8cc8ff"/>
      <stop offset="1" stop-color="#3fb950"/>
    </linearGradient>
    <linearGradient id="ff-bar" x1="144" y1="158" x2="368" y2="158" gradientUnits="userSpaceOnUse">
      <stop offset="0" stop-color="#58a6ff"/>
      <stop offset=".48" stop-color="#5eead4"/>
      <stop offset="1" stop-color="#3fb950"/>
    </linearGradient>
    <filter id="ff-glow" x="-40%" y="-40%" width="180%" height="180%">
      <feGaussianBlur stdDeviation="12" result="blur"/>
      <feColorMatrix in="blur" type="matrix" values="0 0 0 0 0.35 0 0 0 0 0.65 0 0 0 0 1 0 0 0 .5 0"/>
      <feMerge>
        <feMergeNode/>
        <feMergeNode in="SourceGraphic"/>
      </feMerge>
    </filter>
  </defs>
  <rect width="512" height="512" rx="116" fill="#070b12"/>
  <rect x="42" y="42" width="428" height="428" rx="94" fill="url(#ff-bg)" stroke="#26394f" stroke-width="2"/>
  <path d="M136 160c0-39.8 32.2-72 72-72h96c39.8 0 72 32.2 72 72v94c0 39.8-32.2 72-72 72h-73.5L160 392v-66h-10c-39.8 0-72-32.2-72-72v-94Z" fill="#0b1220" stroke="url(#ff-stroke)" stroke-width="18" filter="url(#ff-glow)"/>
  <path d="M166 160h180" stroke="url(#ff-bar)" stroke-width="28" stroke-linecap="round"/>
  <path d="M166 222h126M166 282h86" stroke="#c8d7e8" stroke-width="26" stroke-linecap="round"/>
  <path d="M344 116l12 34 36 9-31 20 3 37-29-23-34 14 13-35-24-28 37 2 17-30Z" fill="#f5d76e"/>
  <circle cx="372" cy="336" r="28" fill="#3fb950" opacity=".9"/>
  <circle cx="132" cy="116" r="14" fill="#58a6ff" opacity=".75"/>
</svg>
